<?xml version="1.0" encoding="UTF-8" standalone="no"?>
<!-- Created with Inkscape (http://www.inkscape.org/) -->

<svg
   width="50mm"
   height="50mm"
   viewBox="0 0 50 49.999999"
   version="1.1"
   id="svg383"
   inkscape:version="1.1.1 (c3084ef, 2021-09-22)"
   sodipodi:docname="rock.svg"
   xmlns:inkscape="http://www.inkscape.org/namespaces/inkscape"
   xmlns:sodipodi="http://sodipodi.sourceforge.net/DTD/sodipodi-0.dtd"
   xmlns="http://www.w3.org/2000/svg"
   xmlns:svg="http://www.w3.org/2000/svg">
  <sodipodi:namedview
     id="namedview385"
     pagecolor="#ffffff"
     bordercolor="#666666"
     borderopacity="1.0"
     inkscape:pageshadow="2"
     inkscape:pageopacity="0.0"
     inkscape:pagecheckerboard="0"
     inkscape:document-units="mm"
     showgrid="false"
     lock-margins="true"
     fit-margin-top="1"
     fit-margin-left="1"
     fit-margin-right="1"
     fit-margin-bottom="1"
     inkscape:zoom="1.2969071"
     inkscape:cx="57.444359"
     inkscape:cy="68.239272"
     inkscape:window-width="1680"
     inkscape:window-height="997"
     inkscape:window-x="0"
     inkscape:window-y="25"
     inkscape:window-maximized="0"
     inkscape:current-layer="layer2" />
  <defs
     id="defs380" />
  <g
     inkscape:label="Layer 1"
     inkscape:groupmode="layer"
     id="layer1"
     transform="translate(-12.25206,-43.418314)" />
  <g
     inkscape:groupmode="layer"
     id="layer2"
     inkscape:label="Layer 2">
    <g
       id="g829"
       transform="translate(-6.4176988,-1.7254466)">
      <g
         id="g32290"
         transform="matrix(0.05162285,0.32160104,0.32160104,-0.05162285,-302.59538,57.929894)">
        <path
           id="path32292"
           style="fill:#ffffff;stroke:#000000;stroke-width:4.0614;stroke-linecap:round;stroke-linejoin:round"
           inkscape:connector-curvature="0"
           d="m 89.471,1065.9 c 3.727,6.1 -0.484,10 -6.16,12.9 -8.03,4.1 -27.898,2.1 -34.7,-2 -6.243,-3.8 -9.013,-9.3 -6.041,-14.2" />
        <path
           id="path32294"
           style="fill:#ffffff;stroke:#000000;stroke-width:4.0614;stroke-linecap:round;stroke-linejoin:round"
           inkscape:connector-curvature="0"
           d="m 21.354,1021 c -0.857,15.7 13.893,40.3 31.364,46.1 9.022,2.9 29.326,3.8 36.494,-1.5 12.278,-9 18.478,-20.7 21.288,-35.1 0.99,-5.1 1.24,-10.9 0.95,-15.7 -1.0243,-19.615 -7.2183,-34.207 -20.606,-31.93 -4.0887,-16.074 -28.906,-12.222 -29.025,0.06 -12.665,-14.242 -31.088,-0.95682 -23.514,16.06 -2.806,2.21 -16.056,5.71 -16.951,22.01 z" />
        <path
           id="path32296"
           style="fill:#000000;stroke-width:5.781"
           inkscape:connector-curvature="0"
           d="m 63.9,983.51 c 3.9293,12.412 2.3553,17.577 2.4826,21.002 -2.2696,-7.8785 -2.6348,-9.9348 -5.6681,-18.124 -0.5176,-1.3926 -1.1975,-2.8019 -2.7174,-4.358 l 6.1176,-0.90089 c 0.04218,-0.30077 -0.35752,1.4647 -0.21472,2.3804 z" />
        <path
           id="path32298"
           style="fill:#000000;stroke-width:5.781"
           inkscape:connector-curvature="0"
           d="m 92.465,981.32 c 1.5115,7.49 2.5208,16.87 0.95082,23.069 -0.77062,-4.1308 -3.4725,-14.678 -4.5081,-20.921 -0.01285,0.002 0.01246,0.0116 3.5573,-2.1484 z" />
        <path
           id="path32300"
           style="fill:none;stroke:#000000;stroke-width:4.0614;stroke-linecap:round;stroke-linejoin:round"
           inkscape:connector-curvature="0"
           d="m 79.642,1058.3 c 4.036,-9.7 3.976,-12.5 5.195,-17.4" />
        <path
           id="path32302"
           style="fill:none;stroke:#000000;stroke-width:4.0614;stroke-linecap:round;stroke-linejoin:round"
           inkscape:connector-curvature="0"
           d="m 70.26,1059 c 1.693,-11.5 1.425,-17.2 1.856,-24.9" />
        <path
           id="path32304"
           style="fill:none;stroke:#000000;stroke-width:4.0614;stroke-linecap:round;stroke-linejoin:round"
           inkscape:connector-curvature="0"
           d="m 59.041,1059.5 c 0.098,-8 -0.598,-11.8 -1.048,-16.8" />
        <path
           id="path32306"
           style="fill:#000000;stroke-width:5.781"
           inkscape:connector-curvature="0"
           d="m 36.025,998.02 c 3.892,16.78 -1.201,23.38 -4.587,31.88 5.145,-8.8 12.14,-11.8 8.841,-31.41 z" />
      </g>
    </g>
  </g>
</svg>
