<?xml version="1.0" encoding="UTF-8" standalone="no"?>
<!-- Created with Inkscape (http://www.inkscape.org/) -->

<svg
   width="50mm"
   height="50mm"
   viewBox="0 0 50 49.999999"
   version="1.1"
   id="svg383"
   inkscape:version="1.1.1 (c3084ef, 2021-09-22)"
   sodipodi:docname="drawing.svg"
   xmlns:inkscape="http://www.inkscape.org/namespaces/inkscape"
   xmlns:sodipodi="http://sodipodi.sourceforge.net/DTD/sodipodi-0.dtd"
   xmlns="http://www.w3.org/2000/svg"
   xmlns:svg="http://www.w3.org/2000/svg">
  <sodipodi:namedview
     id="namedview385"
     pagecolor="#ffffff"
     bordercolor="#666666"
     borderopacity="1.0"
     inkscape:pageshadow="2"
     inkscape:pageopacity="0.0"
     inkscape:pagecheckerboard="0"
     inkscape:document-units="mm"
     showgrid="false"
     lock-margins="true"
     fit-margin-top="1"
     fit-margin-left="1"
     fit-margin-right="1"
     fit-margin-bottom="1"
     inkscape:zoom="1.2969071"
     inkscape:cx="57.444359"
     inkscape:cy="68.239272"
     inkscape:window-width="1680"
     inkscape:window-height="997"
     inkscape:window-x="0"
     inkscape:window-y="25"
     inkscape:window-maximized="0"
     inkscape:current-layer="layer2" />
  <defs
     id="defs380" />
  <g
     inkscape:label="Layer 1"
     inkscape:groupmode="layer"
     id="layer1"
     transform="translate(-12.25206,-43.418314)" />
  <g
     inkscape:groupmode="layer"
     id="layer2"
     inkscape:label="Layer 2">
    <g
       id="g436"
       transform="translate(-12.58971,-36.547983)">
      <path
         id="imagebot_18"
         style="fill:#ffffff;stroke:#000000;stroke-width:1.3229;stroke-linecap:round;stroke-linejoin:round"
         inkscape:connector-curvature="0"
         d="m 17.057183,61.094368 c -2.29874,0.370651 -2.954666,-1.38002 -3.128354,-3.448887 -0.244903,-2.926552 2.809931,-8.668733 4.885285,-10.213137 1.915934,-1.412922 3.915704,-1.569143 5.025978,-0.06854" />
      <path
         id="imagebot_17"
         style="fill:#ffffff;stroke:#000000;stroke-width:1.3229;stroke-linecap:round;stroke-linejoin:round"
         inkscape:connector-curvature="0"
         d="m 38.998302,46.102404 c -4.626841,-2.195907 -13.86259,-0.785611 -17.767076,3.765052 -1.987601,2.361695 -4.764659,8.371057 -4.051647,11.185862 1.197702,4.811788 3.959392,8.124638 7.953336,10.748821 1.415165,0.927828 3.132672,1.718982 4.615372,2.223944 5.453592,1.778996 10.235907,-1.028276 12.168006,-2.270916 3.473946,1.358209 7.490781,3.410666 11.1735,5.565671 5.508425,3.223458 7.377869,-5.546634 2.186743,-8.51348 -2.430169,-1.388783 -4.298183,-2.835324 -9.796289,-5.808885 3.486932,0.320649 8.588541,0.548804 11.88216,1.272854 5.434213,1.195317 5.37087,-7.324257 -1.303406,-8.645737 -4.545138,-0.899602 -8.179425,-0.860333 -12.517961,-1.697173 -0.319888,-1.118581 0.260285,-5.544601 -4.542738,-7.826013 z" />
      <path
         id="imagebot_16"
         style="fill:#000000;stroke-width:1.88301"
         inkscape:connector-curvature="0"
         d="m 45.874622,62.370474 c -4.191031,-0.646926 -6.48906,-0.02011 -7.597996,0.109446 2.649037,0.338372 3.329157,0.353549 6.116178,0.922285 0.474041,0.09729 1.008542,0.287607 1.62099,0.622821 z" />
      <path
         id="imagebot_15"
         style="fill:#000000;stroke-width:1.88301"
         inkscape:connector-curvature="0"
         d="m 42.136552,71.131205 c -2.31855,-0.904888 -5.327726,-1.438221 -7.404921,-1.282021 2.531346,0.928623 4.530825,1.659286 6.962724,2.487621 0.0026,-0.0063 0.196796,-0.609635 0.441028,-1.206184 z" />
      <path
         id="imagebot_14"
         style="fill:none;stroke:#000000;stroke-width:1.3229;stroke-linecap:round;stroke-linejoin:round"
         inkscape:connector-curvature="0"
         d="m 20.561144,59.069449 c 2.425874,2.41371 3.277311,2.741178 4.603926,3.713353" />
      <path
         id="imagebot_13"
         style="fill:none;stroke:#000000;stroke-width:1.3229;stroke-linecap:round;stroke-linejoin:round"
         inkscape:connector-curvature="0"
         d="m 21.50799,56.154952 c 3.257621,1.929579 5.008902,2.552243 7.276798,3.632438" />
      <path
         id="imagebot_12"
         style="fill:none;stroke:#000000;stroke-width:1.3229;stroke-linecap:round;stroke-linejoin:round"
         inkscape:connector-curvature="0"
         d="m 22.741832,52.711393 c 2.399424,1.016839 3.63079,1.276004 5.193525,1.757417" />
      <path
         id="imagebot_11"
         style="fill:#000000;stroke-width:1.88301"
         inkscape:connector-curvature="0"
         d="m 44.114816,53.360844 c -5.53848,-0.897654 -6.899453,-3.247411 -9.043818,-5.317091 2.017715,2.636936 2.058774,5.115748 8.377146,6.541412 z" />
    </g>
  </g>
</svg>
